<?xml version="1.0" encoding="utf-8"?>
<!-- Generator: Adobe Illustrator 25.0.0, SVG Export Plug-In . SVG Version: 6.00 Build 0)  -->
<svg version="1.1" id="Layer_1" xmlns="http://www.w3.org/2000/svg" xmlns:xlink="http://www.w3.org/1999/xlink" x="0px" y="0px"
	 viewBox="0 0 750 166.9" style="enable-background:new 0 0 750 166.9;" xml:space="preserve">
<style type="text/css">
	.st0{fill:#FFFFFF;}
	.st1{clip-path:url(#SVGID_1_);}
</style>
<g>
	<path class="st0" d="M197.5,103.1v-49h6v24.2h0.1l22.5-24.2h7.4l-22.9,24.4l24.6,24.6h-7.8l-23.9-24h-0.1v24H197.5L197.5,103.1z
		 M248.9,75.3h25.7V54.1h6v49h-6V80.7h-25.7v22.4h-6v-49h6L248.9,75.3L248.9,75.3z M312,83.4v19.7h-6V83.4l-17.8-29.3h6.5L309,77.9
		h0.2l14.2-23.8h6.5L312,83.4L312,83.4z M328.3,103.1l20-49h5.2l20,49H367l-6-14.7h-20.5l-5.9,14.8h-6.3V103.1z M350.8,61.7
		c-2.2,6.1-4.3,11.7-6.3,16.6l-1.8,4.6h16.2l-1.8-4.6c-2-5.1-4.1-10.6-6.2-16.6L350.8,61.7L350.8,61.7z M406.1,81.4
		c3,4.3,6,8.8,8.9,13.3h0.2c-0.3-4.8-0.5-9.6-0.5-14.6v-26h6v49h-5.9l-19.2-27.3c-3.3-4.8-6.3-9.2-8.9-13.3h-0.2
		c0.3,4.5,0.5,9.7,0.5,15.6v25h-6v-49h5.9L406.1,81.4z M450.7,103.1h-6V59.5h-16.4v-5.4H467v5.4h-16.4L450.7,103.1L450.7,103.1z
		 M518.9,83.3h-11.2v-5.4h17.1v23.7c-0.5,0.3-1.3,0.5-2.3,0.8s-2.1,0.5-3.4,0.8c-1.3,0.2-2.6,0.4-4.1,0.6c-1.4,0.1-2.9,0.2-4.3,0.2
		c-4.2,0-7.9-0.6-11.1-1.7s-5.9-2.8-8.1-4.9s-3.8-4.7-4.9-7.7s-1.7-6.4-1.7-10c0-4,0.6-7.6,1.9-10.9s3.2-6.1,5.5-8.4
		c2.4-2.3,5.2-4.1,8.5-5.3c3.3-1.3,7-1.9,11-1.9c1.1,0,2.1,0,3.2,0.1c1.1,0.1,2.1,0.2,3.1,0.4c1,0.1,1.9,0.3,2.7,0.5
		s1.5,0.4,2.1,0.7v5.3c-1.5-0.5-3.2-0.9-5.1-1.2c-1.9-0.3-3.8-0.5-5.7-0.5c-2.8,0-5.4,0.4-8,1.3c-2.5,0.8-4.7,2.1-6.7,3.8
		c-1.9,1.7-3.5,3.9-4.6,6.4c-1.1,2.6-1.7,5.6-1.7,9c0,3.5,0.5,6.3,1.4,8.8c1,2.5,2.3,4.5,4,6.1s3.8,2.8,6.3,3.6
		c2.5,0.8,5.2,1.1,8.2,1.1c1.4,0,2.8-0.1,4.1-0.2c1.4-0.1,2.6-0.4,3.6-0.6L518.9,83.3L518.9,83.3z M543,54.1v43.6h23.9v5.4H537v-49
		H543L543,54.1z M611,78.7c0-3.3-0.4-6.2-1.3-8.7c-0.9-2.5-2-4.6-3.5-6.3s-3.3-3-5.3-3.8c-2-0.9-4.2-1.3-6.6-1.3
		c-2.3,0-4.5,0.4-6.6,1.3c-2,0.9-3.8,2.1-5.3,3.8s-2.7,3.8-3.5,6.3c-0.9,2.5-1.3,5.4-1.3,8.7s0.4,6.2,1.3,8.7
		c0.9,2.5,2.1,4.6,3.5,6.3c1.5,1.7,3.3,3,5.3,3.8c2,0.9,4.3,1.3,6.6,1.3c2.4,0,4.5-0.4,6.5-1.3s3.8-2.1,5.3-3.8
		c1.5-1.7,2.7-3.8,3.5-6.3C610.5,84.9,611,82,611,78.7L611,78.7z M617.3,78.7c0,3.7-0.5,7.1-1.6,10.2s-2.6,5.8-4.6,8s-4.4,4-7.2,5.3
		c-2.8,1.2-6,1.9-9.5,1.9s-6.8-0.6-9.7-1.9s-5.3-3-7.2-5.3c-2-2.2-3.5-4.9-4.5-8s-1.6-6.5-1.6-10.2s0.5-7.2,1.6-10.2
		c1.1-3.1,2.6-5.8,4.6-8.1c2-2.2,4.4-4,7.2-5.2c2.8-1.3,6-1.9,9.5-1.9s6.8,0.6,9.6,1.9c2.9,1.2,5.3,3,7.2,5.2c2,2.2,3.5,4.9,4.5,8.1
		C616.8,71.5,617.3,74.9,617.3,78.7L617.3,78.7z M652.1,77.8c1.5,0.2,2.9,0.6,4.1,1.2c1.2,0.6,2.3,1.3,3.1,2.3c0.9,0.9,1.6,2,2,3.3
		c0.5,1.2,0.7,2.7,0.7,4.3c0,1.1-0.2,2.4-0.5,3.6s-0.9,2.5-1.7,3.7s-1.8,2.3-3.1,3.3s-2.9,1.8-4.8,2.5c-1.5,0.5-3.1,0.8-4.9,1
		c-1.8,0.2-3.9,0.3-6.4,0.3h-12.7v-49h12.2c1.1,0,2.1,0,3,0.1c0.9,0,1.8,0.1,2.5,0.1c0.8,0.1,1.5,0.2,2.2,0.3s1.3,0.2,1.9,0.4
		c1.5,0.4,2.9,1,4.2,1.7s2.3,1.6,3.2,2.6s1.5,2.1,2,3.4s0.7,2.7,0.7,4.1c0,1.2-0.1,2.3-0.4,3.4c-0.3,1.1-0.7,2.1-1.4,3
		c-0.6,0.9-1.4,1.8-2.4,2.5s-2.2,1.3-3.6,1.8L652.1,77.8L652.1,77.8z M642.9,75.3c1.2,0,2.2,0,3-0.1c0.9-0.1,1.6-0.3,2.3-0.5
		c1.8-0.6,3.2-1.6,4-2.9c0.9-1.3,1.3-2.8,1.3-4.6c0-1.8-0.4-3.3-1.3-4.4c-0.9-1.1-2.3-2-4.1-2.6c-0.9-0.3-2-0.4-3.2-0.5
		s-2.7-0.2-4.3-0.2h-6.7v15.8H642.9L642.9,75.3z M633.9,80.7v17h7.2c1.7,0,3.3-0.1,4.8-0.2c1.5-0.2,2.7-0.4,3.7-0.8
		c1.1-0.4,2.1-0.8,2.9-1.4c0.8-0.6,1.4-1.2,1.9-1.9c0.5-0.7,0.8-1.5,1-2.2c0.2-0.8,0.3-1.6,0.3-2.4c0-0.9-0.1-1.8-0.3-2.6
		c-0.2-0.8-0.6-1.6-1.1-2.2c-0.5-0.7-1.1-1.2-2-1.7c-0.8-0.5-1.8-0.9-3-1.1c-0.7-0.2-1.6-0.3-2.5-0.4s-2.1-0.1-3.5-0.1L633.9,80.7
		L633.9,80.7z M667.5,103.1l20-49h5.2l20,49h-6.5l-5.9-14.8h-20.5l-5.9,14.8H667.5L667.5,103.1z M690,61.8
		c-2.2,6.1-4.3,11.7-6.3,16.6l-1.8,4.6h16.2l-1.8-4.6c-2-5.1-4.1-10.6-6.2-16.6L690,61.8L690,61.8z M726.1,54.1v43.6H750v5.4h-29.9
		v-49H726.1L726.1,54.1z"/>
	<g>
		<g>
			<defs>
				<rect id="SVGID_3_" width="159.4" height="166.9"/>
			</defs>
			<clipPath id="SVGID_1_">
				<use xlink:href="#SVGID_3_"  style="overflow:visible;"/>
			</clipPath>
			<g class="st1">
				<g>
					<path class="st0" d="M1.1,84.2c0.6-0.9,0-1.7,0.2-2.6h0.2c0,3.6,0.2,7.2,0.6,10.9c0,0.6-0.1,1-0.4,1.3
						c-0.2-1.7-0.4-3.4-0.4-5.3c0-0.4,0.2-0.9-0.2-1.1L1.1,84.2L1.1,84.2z"/>
					<path class="st0" d="M103.1,108.1c-0.2,2.8-1.3,4.7-4,5.3c-2.1,0.4-3.8-0.6-5.1-2.1c-1.5-1.7-2.3-3.6-1.9-6
						c0.4-3.2,3.6-5.3,7-3.6C101.4,102.9,102.9,105.1,103.1,108.1z"/>
					<path class="st0" d="M87.8,107.4c0.2,1.7-0.6,3.2-1.9,4.3c-1.1,1.1-3.8,1.1-5.3,0c-2.5-1.7-4-4.3-4-7.2c0-3,3.2-5.1,5.7-4.3
						C85.5,101,88.1,104.4,87.8,107.4L87.8,107.4z"/>
					<path class="st0" d="M93.3,92.5c0,2.8-1.7,5.1-4,5.3c-2.1,0.2-3.8-0.9-5.1-2.6c-1.3-1.7-2.1-3.6-1.9-6c0.4-3.2,3.8-5.1,6.8-3.4
						C91.9,87.6,92.9,90.2,93.3,92.5L93.3,92.5z"/>
					<path class="st0" d="M108,94c0.2,1.3-0.6,2.8-1.7,3.6c-1.3,1.1-3,1.3-4.7,0.6c-2.7-1.1-4.7-4.7-4.7-7.5c0-1.9,1.7-4.1,3.4-4.5
						c1.9-0.4,4,0.4,5.3,1.9C107.1,89.7,108,91.4,108,94z"/>
					<path class="st0" d="M66.7,98.3c2.1,0,3.6,1.5,4.7,2.8c1.3,1.5,1.9,3.4,1.7,5.5c-0.2,3.6-3.6,5.8-6.8,3.6
						c-2.7-1.9-4.2-4.7-3.8-8.1C62.6,100,64.3,98,66.7,98.3z"/>
					<path class="st0" d="M111.8,101c2.3,0.2,4,1.5,5.1,3.8c1.1,1.9,1.1,3.8,0.2,5.5c-0.8,1.7-2.3,2.8-4.2,2.8
						c-1.9,0-3.2-0.9-4.2-2.3c-1.1-1.5-1.7-3-1.7-4.9C106.9,103.8,109,100.8,111.8,101L111.8,101z"/>
					<path class="st0" d="M78.5,91.7c0,3.2-1.9,4.5-4.2,4.9c-1.3,0.2-2.5-0.4-3.6-1.5c-2.1-1.9-3-4.3-2.7-6.8
						c0.2-3.2,3.6-5.5,6.8-3.4C77.3,86.3,78.3,88.7,78.5,91.7L78.5,91.7z"/>
					<path class="st0" d="M121.7,90.6c1.3,2.3,0.6,5.3-1.5,6.8c-1.5,1.1-3,1.1-4.4,0.4c-2.7-1.3-5.1-5.8-3.8-8.7s4-3.6,6.6-2.3
						c0.4,0.2,1.1,0.4,1.3,1.1C120.2,88.9,121.1,89.7,121.7,90.6L121.7,90.6z"/>
					<path class="st0" d="M58.6,103.4c0.2,1.1,0,2.1-0.6,3.2c-1.3,1.9-3.8,3-6.1,1.1c-2.7-2.1-4.2-6.6-2.7-9.8
						c0.6-1.5,3.2-2.3,4.7-1.7C56.9,97.4,58,100.2,58.6,103.4z"/>
					<path class="st0" d="M59.7,94.4c-1.7,0.2-3-1.3-4-2.8c-1.5-1.9-2.3-6-0.2-8.5c1.5-1.9,4-1.9,5.7-0.6c2.5,2.1,3.6,4.9,3,8.3
						C63.5,92.9,62.2,94.4,59.7,94.4L59.7,94.4z"/>
					<path class="st0" d="M97.8,78.6c-0.2,2.8-2.1,4.9-4.4,4.7c-1.5,0-2.5-0.9-3.6-1.9c-1.5-1.7-2.5-3.6-2.5-6c0-1.7,1.7-3.8,3-4.5
						c1.3-0.4,3.8,0.2,4.9,1.7C96.9,74.8,97.8,76.9,97.8,78.6z"/>
					<path class="st0" d="M83.6,78.2c-0.2,1.7-1.1,3-2.7,3.8c-1.7,0.9-3.2,0.2-4.4-0.6c-2.1-1.5-3.8-4.9-2.7-8.1
						c1.1-3.4,4.7-4.3,7.4-1.5C83,73.5,83.6,75.2,83.6,78.2L83.6,78.2z"/>
					<path class="st0" d="M92.7,126.8c-3.2,0-6.4-3.6-6.1-6.6c0.4-2.8,1.5-4.3,4-4.7c1.7-0.2,3,0.4,4.2,1.5c1.7,1.5,2.5,3.4,2.5,5.5
						c0,1.5-1.7,3.4-3,3.8C93.8,126.6,93.3,127,92.7,126.8L92.7,126.8z"/>
					<path class="st0" d="M111.1,75.9c0.6,1.5,1.3,3,0.6,4.7c-0.8,2.6-3.6,3.8-5.9,2.6c-3-1.5-5.3-6-4-9.2c0.8-1.9,3.2-3,5.1-2.1
						c0.8,0.4,1.5,0.6,2.1,1.3C109.4,74.2,110.3,75,111.1,75.9C111,76,111,76,111.1,75.9C110.9,76.1,111.1,76.1,111.1,75.9
						L111.1,75.9z"/>
					<path class="st0" d="M82.3,122.8c0,1.7-3.2,3.2-4.7,3c-3.8-0.6-6.4-4.7-5.9-8.1c0.4-2.3,2.3-3.8,4.7-3.6
						c1.9,0.2,3.4,1.3,4.4,2.8c0,0.9,0.6,1.3,0.8,1.9C82.3,120.2,82.3,121.5,82.3,122.8z"/>
					<path class="st0" d="M57.4,116.8c-0.2-3.2,2.3-4.7,4.4-4.5c1.7,0.2,3.2,1.3,4.2,2.8c1.1,1.5,1.7,3,1.9,4.7
						c0.2,2.6-2.1,4.7-4.7,4.3c-2.7-0.6-4.2-2.3-5.3-4.7C57.8,118.5,57.4,117.6,57.4,116.8L57.4,116.8z"/>
					<path class="st0" d="M106.5,127c-3-0.2-5.3-3.2-5.1-6.6c0.2-2.6,2.5-4.9,4.9-4.7c3.6,0.2,5.9,3.2,5.7,6.4
						C111.8,125.3,108.8,127.3,106.5,127L106.5,127z"/>
					<path class="st0" d="M119,71.2c1.3,0,2.3,0.4,3.2,1.3c2.1,1.9,3.8,4.3,3.2,7.5c-0.6,3-3.2,4.1-5.9,2.8c-2.3-1.3-5.3-5.3-4-8.7
						C115.8,72.5,117.5,71.2,119,71.2L119,71.2z"/>
					<path class="st0" d="M44.9,100.2c0.2,1.9-0.2,3.2-1.3,4.3c-1.3,1.3-3.2,1.5-5.1-0.2c-2.5-2.3-3.6-5.1-3-8.5
						c0.2-1.5,1.1-2.8,2.5-3.2c1.5-0.4,2.7,0.2,3.8,1.3C43.6,95.9,44.9,97.8,44.9,100.2z"/>
					<path class="st0" d="M64.3,68.2c2.1,0.2,3.6,1.5,4.4,3.2c1.1,1.9,1.3,3.8,0.6,6c-0.4,1.9-1.9,2.8-3.4,3.2c-1.7,0.4-3-0.4-4-1.7
						c-1.7-1.9-2.1-4.1-1.9-6.6C60.5,70.3,62.9,68,64.3,68.2L64.3,68.2z"/>
					<path class="st0" d="M50.6,87c-0.2,1.7-0.6,3.2-2.5,4.5c-1.5,1.1-4,0-5.1-1.5c-1.5-2.3-2.1-4.7-1.5-7.5
						c0.4-1.9,1.7-2.8,3.4-3.2c1.5-0.4,2.7,0.6,3.6,1.7C50,82.5,50.6,84.6,50.6,87L50.6,87z"/>
					<path class="st0" d="M131.2,106.6c0.6,1.5-0.2,2.8-0.8,3.8c-0.6,0.9-1.5,1.7-2.7,2.1c-1.7,0.4-3.2-0.2-4-1.5
						c-1.7-2.1-3-4.5-1.3-7.9c1.5-3,4.4-3.4,6.4-2.1c1.1,1.3,2.1,2.6,2.5,4.3C131,105.9,131,106.4,131.2,106.6L131.2,106.6z"/>
					<path class="st0" d="M53.8,117.9c0,1.5-0.4,2.8-1.9,3.4s-3,0.2-4.2-0.6c-2.5-1.7-4-4.3-4-7.5c0-3,2.5-4.9,5.3-3.2
						C51.9,111.7,53.5,114.5,53.8,117.9z"/>
					<path class="st0" d="M135,90.6c0.8,2.3-0.2,5.5-2.3,6.6c-1.1,0.6-3.6,0-4.4-1.3c-1.1-1.5-2.1-3-2.3-4.9
						c-0.2-2.1,0.6-4.7,2.3-5.5c1.3-0.6,2.7-0.6,4,0.4c0,0.6,0.6,0.6,1.1,1.3C133.8,88.2,134.6,89.3,135,90.6L135,90.6z"/>
					<path class="st0" d="M56.9,72.7c0,2.1-0.6,3.8-2.5,4.9c-1.3,0.6-3,0.6-4-0.4c-2.7-2.6-3.2-7-1.1-10c1.7-2.1,4.4-1.9,6.1,0.6
						C56.5,69.3,56.9,71,56.9,72.7z"/>
					<path class="st0" d="M125.7,120.8c-0.2,3-2.1,5.5-5.3,5.5c-2.3,0.2-4.7-2.6-4.9-5.3c0-3.2,2.5-6,5.5-5.8
						C123.6,115.5,125.7,117.6,125.7,120.8L125.7,120.8z"/>
					<path class="st0" d="M91.7,61.8c-0.2-2.1,1.1-4.1,2.7-4.5c0.8-0.2,1.5-0.2,2.1,0.2c2.5,1.3,4.4,3.6,4.9,6.6
						c0.4,2.6-0.8,4.7-3.2,4.9c-1.7,0.2-3.2-0.6-4.2-1.7C92.5,65.6,91.2,63.9,91.7,61.8L91.7,61.8z"/>
					<path class="st0" d="M110.7,69.1c-0.8-0.2-2.1-0.4-3.2-1.5c-2.1-1.9-3.6-4.1-3.2-7c0.2-1.9,2.1-3.4,4-3.2
						c2.7,0.6,6.6,5.1,5.9,8.7C114.1,67.4,112.4,69.1,110.7,69.1L110.7,69.1z"/>
					<path class="st0" d="M88.3,63.3c0,2.8-1.3,4.5-3.6,4.9c-1.7,0.2-2.7-0.6-3.8-1.7c-1.7-1.9-2.5-4.1-1.9-6.4
						c0.6-3.2,4-4.9,6.8-2.1C87.2,59.5,88.1,61.2,88.3,63.3L88.3,63.3z"/>
					<path class="st0" d="M38.1,83.1c0,1.7-0.4,3.6-2.1,4.7c-1.1,0.9-3,0.4-3.8-0.6c-2.3-2.6-3-7-1.3-9.8c1.5-2.6,4.2-2.6,5.7-0.2
						C37.7,79.1,38.1,81,38.1,83.1L38.1,83.1z"/>
					<path class="st0" d="M75.6,61.8c0,1.5-0.4,3-1.7,4.1c-1.5,1.5-4.4,1.3-5.9-1.3c-1.5-2.3-2.1-5.1-0.2-7.7c1.5-2.3,4-2.8,6.1-0.2
						C74.9,58,75.6,59.7,75.6,61.8L75.6,61.8z"/>
					<path class="st0" d="M137.4,76.7c0,3.6-0.8,4.9-2.7,5.3c-1.5,0.4-2.5-0.4-3.6-1.3c-1.7-1.7-3-3.6-3-6.2
						c0.2-2.3,0.6-3.8,2.7-4.3c0.8-0.2,1.7,0,2.3,0.4C135.7,72.5,137.2,74.8,137.4,76.7L137.4,76.7z"/>
					<path class="st0" d="M31.3,110c0-1.5,0.2-2.6,1.5-3.4s2.5-0.4,3.4,0.2c2.5,1.9,4,4.7,4.2,7.9c0.2,1.7-0.4,2.8-2.1,3.6
						c-1.5,0.6-2.5-0.2-3.4-0.9C32.6,115.7,31.3,113.2,31.3,110z"/>
					<path class="st0" d="M67.1,130.7c-0.4-2.1,2.5-3.8,4.4-3.4c3,0.6,4.9,2.6,5.7,5.5c0.6,2.6-1.1,4.9-3.8,4.7
						C70.3,137.5,67.1,134.1,67.1,130.7z"/>
					<path class="st0" d="M85.5,128.5c3.6,0,7,3.6,6.1,7.2c-0.4,1.7-2.7,3.2-4.7,3c-2.7-0.4-4.7-1.9-5.3-4.7
						c-0.6-2.6,0.2-4.3,2.7-5.1C84.7,128.7,85.1,128.3,85.5,128.5L85.5,128.5z"/>
					<path class="st0" d="M32.4,97.4c0,1.3-0.2,2.8-1.7,3.8c-1.5,1.1-2.1,0.9-3.8-0.4c-2.3-2.1-3.6-7-2.3-10
						c0.8-2.1,3.2-2.3,4.9-0.6C31.5,92.1,32.2,94.6,32.4,97.4z"/>
					<path class="st0" d="M126.6,64.6c0.2,1.7-0.4,2.8-1.5,3.6c-1.3,0.9-2.7,0.6-4-0.4c-2.1-1.7-4-3.6-4.2-6.8
						c0-1.3,0.2-2.8,1.3-3.4c1.1-0.9,2.5-0.6,3.8,0C124.3,58.6,126.8,62,126.6,64.6z"/>
					<path class="st0" d="M44.9,68.8c0,1.7-0.4,3.4-1.5,4.9c-1.5,1.9-4.7,1.5-5.7-0.6c-1.5-2.8-1.5-6.2,0.6-8.9
						c1.5-2.1,4.4-1.9,5.7,0.4C44.5,66.1,44.9,67.4,44.9,68.8L44.9,68.8z"/>
					<path class="st0" d="M105.6,134.5c0.2,2.3-2.3,4.7-5.3,4.7c-2.3,0-5.1-2.8-5.1-5.1c0-2.6,2.3-4.9,4.7-4.9
						C103.1,129.2,105.8,131.7,105.6,134.5z"/>
					<path class="st0" d="M63.7,132.6c0,2.3-1.7,3.6-4,3.2c-3.2-0.6-5.9-3.6-6.4-6.8c-0.2-2.3,1.3-4.1,4.2-3.6
						C60.1,125.8,63.9,129.6,63.7,132.6L63.7,132.6z"/>
					<path class="st0" d="M142.9,104.9c0,1.7-0.4,3.4-1.5,4.9c-1.5,1.9-4.4,1.9-5.5-0.4c-0.6-1.3-1.3-2.8-1.5-4.3
						c-0.2-1.7,1.3-4.7,2.7-5.5c1.5-0.9,2.7-0.6,4,0.9C142,101.2,142.9,103.8,142.9,104.9L142.9,104.9z"/>
					<path class="st0" d="M138.2,89.1c-0.2-1.5,0.2-2.8,0.8-3.8c1.1-1.7,3.4-2.3,5.3,0c1.9,2.3,2.3,5.1,1.5,7.9
						c-0.4,1.3-1.1,2.3-2.5,2.8c-1.3,0.2-2.3-0.4-3-1.5C139,92.9,138,91,138.2,89.1L138.2,89.1z"/>
					<path class="st0" d="M63.3,60.5c-0.2,2.1-1.3,3.2-3.2,4.1c-0.8,0.4-1.9,0.2-2.5-0.2c-3.2-2.3-3.2-7-1.3-9.6
						c1.5-2.1,3-2.1,5.3-0.6v0.2C63.1,56.1,63.3,58.2,63.3,60.5z"/>
					<path class="st0" d="M113.7,138.8c-1.9,0.2-4.4-1.7-4.2-4.9c0-2.6,2.5-4.9,5.5-4.9c2.1,0,4.4,1.9,4.4,4.5
						C119.2,136.2,116,139,113.7,138.8z"/>
					<path class="st0" d="M50.4,130.2c0,3-2.3,3.8-4.7,2.8c-3-1.5-4.9-4.1-5.3-7.5c-0.2-1.7,1.5-3.2,3.2-3c2.7,0.6,4.4,2.6,5.7,4.9
						C50,128.3,50.2,129.4,50.4,130.2L50.4,130.2z"/>
					<path class="st0" d="M28.4,111.3c0,1.1,0,2.1-0.8,3s-2.3,0.9-3.4-0.2c-2.1-1.9-3.2-4.3-3.8-7c-0.2-1.3-0.2-2.6,0.6-3.8
						c0.8-1.1,1.9-1.3,3-0.6c2.1,1.5,3,3.6,3.8,6C28.4,109.4,28.6,110.4,28.4,111.3L28.4,111.3z"/>
					<path class="st0" d="M52.3,55.6c0,1.9-0.4,3.8-1.9,5.3s-4,1.5-5.1-0.6c-1.9-3-0.2-8.5,2.5-9.6c1.3-0.4,2.5-0.2,3.4,0.9
						C51.9,52.7,52.3,53.9,52.3,55.6L52.3,55.6z"/>
					<path class="st0" d="M105.8,47.3c0-2.1,1.3-4.1,4.2-2.8c2.5,1.3,4.2,3.4,4.9,6.4c0.2,1.5,0,2.8-1.3,3.6s-2.7,0.4-4-0.4
						C107.8,52.7,105.8,50.5,105.8,47.3L105.8,47.3z"/>
					<path class="st0" d="M94.4,48.2c0-2.3,1.3-4.1,3-4.1c1.3,0,2.3,0.6,3,1.5c1.3,1.5,2.5,3,3,5.1c0.4,1.9-0.4,3-1.7,3.8
						c-1.3,0.9-2.5,0.4-3.4-0.2C96.1,52.9,94.6,50.7,94.4,48.2L94.4,48.2z"/>
					<path class="st0" d="M27.1,78.9c0,0.9,0,2.1-0.6,3.4C25.9,83.4,25,84,24,84.4c-0.6,0.4-1.1,0-1.5-0.4c-2.1-1.9-2.5-4.5-2.3-7
						c0-0.9,0.4-1.7,0.6-2.6c0.4-1.5,1.5-2.1,2.7-2.6c1.1-0.2,1.7,0.4,2.3,1.3C26.7,74.6,27.1,76.3,27.1,78.9z"/>
					<path class="st0" d="M137.6,120.2c-0.4,2.6-1.9,4.3-4.4,5.1c-1.1,0.2-2.5-0.4-3-1.5c-1.5-2.8-1.3-5.3,0.6-7.7
						c1.5-1.7,2.7-2.1,4.9-1.3C137.2,116.4,137.6,118.1,137.6,120.2z"/>
					<path class="st0" d="M91.9,50.5c0,1.9-0.8,3.4-2.3,3.8c-1.5,0.4-3.8-0.2-4.4-1.5c-1.1-1.7-1.9-3.4-1.7-5.5
						c0.2-1.5,0.6-3,2.1-3.6s3,0,4,1.3C90.6,46.7,91.9,48.4,91.9,50.5L91.9,50.5z"/>
					<path class="st0" d="M34.3,64.6c0,2.1-0.4,4.1-2.1,5.8c-1.5,1.5-3.4,1.3-4.4-0.4c-1.7-3.2-1.1-7,1.3-9.6
						c1.9-1.9,3.6-1.3,4.7,1.1c0.2,0.4,0.4,1.1,0.4,1.5C34.3,63.5,34.3,64.2,34.3,64.6z"/>
					<path class="st0" d="M14.6,89.3c0-1.5,0.2-2.8,1.1-3.8c0.8-1.3,1.9-1.3,3-0.4c1.7,1.5,2.1,3.6,2.5,5.8c0.2,1.3,0.2,2.6,0,4.1
						c0,1.1-0.6,1.7-1.3,2.3c-0.8,0.9-1.9,0.6-3-0.2c-1.1-1.5-1.9-3.2-2.1-4.9C14.6,91.2,14.4,90.2,14.6,89.3L14.6,89.3z"/>
					<path class="st0" d="M72.4,48.2c0.2-2.1,0.2-3.8,1.9-4.9c1.7-1.1,3.4-0.9,4.7,0.9c1.3,1.7,1.7,3.6,1.5,5.8
						c-0.2,1.7-1.9,3.2-3.2,3.4c-1.3,0.4-3.2-0.6-3.8-2.1C72.8,50.1,72.2,49,72.4,48.2L72.4,48.2z"/>
					<path class="st0" d="M137.4,63.9c0,1.5-0.2,2.6-1.3,3c-1.1,0.6-2.1,0.2-3-0.2c-2.7-1.7-4.4-4.1-4.7-7.5c-0.2-1.3,0.2-2.3,1.1-3
						c0.8-0.6,1.9-0.4,3,0.2C135.3,58.4,137,61,137.4,63.9L137.4,63.9z"/>
					<path class="st0" d="M35.8,130.2c-1.7,0-3-1.1-4-2.3c-1.5-1.5-2.3-3.4-3-5.3c-0.2-0.9-0.2-1.7,0.2-2.3c0.6-1.3,1.9-1.7,3.4-0.9
						c3.2,1.9,5.1,4.9,5.5,8.7C37.9,129.2,37,130.2,35.8,130.2z"/>
					<path class="st0" d="M147.3,77.4c-0.2,0.9,0,1.9-1.1,2.6c-1.1,0.9-2.1,0.9-3,0c-2.7-2.1-4-4.9-3.8-8.3c0-1.1,0.4-1.9,1.5-2.6
						c1.3-0.6,2.5,0,3.4,0.9C146,72.1,147.3,74.2,147.3,77.4L147.3,77.4z"/>
					<path class="st0" d="M69.4,46.7c0,1.3-0.4,2.1-0.8,3.2c-0.6,1.1-1.7,1.9-3.2,1.9s-2.3-0.9-3-2.1c-1.1-2.3-0.8-4.9,0.6-7
						c0.8-1.1,1.9-1.9,3.4-1.5c1.7,0.4,2.3,1.9,2.5,3.4C69.4,45,69.8,45.8,69.4,46.7z"/>
					<path class="st0" d="M82.3,148.8c-2.3,0-4.7-1.7-5.5-4.1c-0.8-2.3,0.2-4.3,2.5-4.7c2.5-0.4,5.5,1.3,6.6,3.6
						C87,146,85.5,148.8,82.3,148.8L82.3,148.8z"/>
					<path class="st0" d="M73.4,144.7c0,1.9-1.5,3.2-3.6,3c-2.3-0.2-5.3-2.6-6.1-4.9c-0.6-1.7,0-3.6,2.5-4.1
						C69,138.1,73.4,141.7,73.4,144.7L73.4,144.7z"/>
					<path class="st0" d="M131,131.7c0,2.6-1.9,5.1-4.4,5.8c-3,0.9-4.2-1.5-4.2-4.1c0.2-2.3,1.5-4.1,3.8-5.1
						C128.7,127.3,131.2,128.7,131,131.7z"/>
					<path class="st0" d="M42.3,52.4c0,2.8-1.7,5.1-4,6.2c-1.1,0.4-2.7-0.4-3-1.9c-0.6-3-0.2-6,2.1-8.1c0.6-0.6,1.5-1.1,2.5-1.3
						c1.1-0.4,2.1,0.6,2.3,2.6C42.3,50.7,42.1,51.6,42.3,52.4z"/>
					<path class="st0" d="M152.4,103.2c-0.2,2.1-0.6,4.1-2.3,5.8c-1.1,1.1-2.5,0.6-3.4-0.9c-1.7-3-1.5-6.2,0.2-9.2
						c0.4-0.9,1.3-1.5,2.1-1.5c1.1,0,1.7,0.6,2.1,1.5C152,100.2,152.4,101.7,152.4,103.2L152.4,103.2z"/>
					<path class="st0" d="M99.3,145.4c0,1.9-2.1,3.8-4.4,3.8c-2.5,0-5.1-2.1-5.1-4.7c0-1.7,1.7-3.8,4.7-3.8
						C96.5,140.7,99.3,142.6,99.3,145.4z"/>
					<path class="st0" d="M116.6,46.5c0-2.3,1.7-3.2,3.6-2.1c3,1.5,4.9,4.1,5.5,7.2c0.2,1.7-1.3,3-2.7,2.6c-1.7-0.4-2.7-1.5-4-2.8
						c-1.1-1.3-1.9-2.6-2.3-4.3C116.9,47.1,116.9,46.7,116.6,46.5L116.6,46.5z"/>
					<path class="st0" d="M50.8,139c-0.4-1.7,1.9-3,3.6-2.3c2.7,0.9,4.9,2.6,5.9,5.5c0.4,0.9,0.4,1.7,0,2.6
						c-0.6,1.1-1.7,1.3-2.7,1.1c-2.1-0.4-3.8-1.7-5.3-3.4C51.7,141.3,51,140.3,50.8,139L50.8,139z"/>
					<path class="st0" d="M25.4,59.3c0,2.3-0.6,4.1-1.5,6c-0.6,1.1-1.5,1.5-2.3,1.9c-1.1,0.4-1.7-0.2-2.1-1.1c-1.5-3,0-7.9,2.1-9.8
						c0.6-0.6,1.5-1.3,2.5-0.9c0.8,0.4,1.3,1.3,1.3,2.3C25.2,58.2,25.6,58.8,25.4,59.3z"/>
					<path class="st0" d="M52.3,46.3c0.2-3.4,0.8-6,3.6-7.2c1.1-0.4,2.3-0.2,3,0.9c1.3,2.6,0.8,6.2-1.1,8.3c-1.3,1.3-3,1.7-4,0.9
						C52.9,48.2,52.3,47.1,52.3,46.3L52.3,46.3z"/>
					<path class="st0" d="M107.5,140.9c2.1-0.2,3.6,1.1,4,2.1c0.6,1.7,0.2,3.4-1.3,4.7s-3.2,1.9-5.1,1.3c-1.5-0.4-2.3-1.7-2.3-3.2
						s0.4-2.8,1.7-3.6C105.4,141.3,106.5,140.7,107.5,140.9z"/>
					<path class="st0" d="M17.8,107.4c0,0.9,0.2,1.9-1.1,2.8c-0.8,0.6-1.5,0.4-2.1-0.2c-1.9-1.9-2.7-4.3-3.4-6.8
						c-0.4-1.3-0.6-2.8,0-4.3c0.4-1.1,1.7-1.9,3-0.9c1.7,1.7,2.3,4.1,3.2,6.2C17.8,105.3,17.8,106.1,17.8,107.4L17.8,107.4z"/>
					<path class="st0" d="M17.8,72.3c0.4,2.6-0.2,4.9-1.7,7c-0.8,1.1-2.3,0.6-3.2-0.4c-1.5-2.6-1.3-8.1,0.6-10.4
						c1.3-1.5,2.5-1.9,3.6,0.4c0,0.2,0.2,0.4,0.2,0.6C17.6,70.3,17.6,71.2,17.8,72.3L17.8,72.3z"/>
					<path class="st0" d="M154.9,88.9c0,1.3-0.2,2.6-0.6,3.6c-0.6,1.5-1.9,2.1-3.4,0.9c-2.1-1.9-3-6.8-1.9-9.6
						c0.4-0.9,0.8-1.7,1.9-1.7c1.1,0,1.7,0.6,2.3,1.5C154.3,85.3,154.7,86.7,154.9,88.9L154.9,88.9z"/>
					<path class="st0" d="M147.5,116.6c-0.4,2.6-1.1,5.1-3.4,6.6c-1.3,0.9-2.7,0-3.2-1.3c-1.1-3.2-0.2-6,2.1-8.5
						c1.7-1.7,3.6-1.3,4.2,1.1C147.3,115.3,147.8,115.9,147.5,116.6L147.5,116.6z"/>
					<path class="st0" d="M41.1,133.8c1.5,0,2.7,1.1,4,2.1c1.5,1.5,2.7,3,3.2,5.1c0.2,1.7-0.6,2.6-2.3,2.3c-2.7-0.4-4.7-2.6-6.1-4.7
						c-0.6-0.9-1.1-1.7-1.1-2.8C38.9,134.5,39.4,133.8,41.1,133.8L41.1,133.8z"/>
					<path class="st0" d="M18.4,117c0-1.1,0.4-1.7,1.3-2.1s1.5,0,1.9,0.4c2.1,1.7,3.6,4.1,4.4,6.6c0.2,0.6,0.4,1.3,0.4,2.1
						c0.2,1.1-0.4,1.7-1.3,2.1s-1.3,0-1.7-0.2C20.5,123.8,19.1,120.9,18.4,117L18.4,117z"/>
					<path class="st0" d="M29.4,55.2c-1.3,0-2.3-1.3-2.3-2.3c0-3.2,0.8-5.8,3.4-7.9c0.6-0.4,1.3-0.9,1.9-0.9
						c1.1-0.2,1.5,0.9,1.7,1.5c0.4,3.4-0.2,6.4-3,8.7C30.5,54.8,29.8,55.2,29.4,55.2L29.4,55.2z"/>
					<path class="st0" d="M95.9,35.2c0-0.9,0-1.5,0.6-2.1s1.1-0.9,1.9-0.6c2.7,0.9,5.5,4.3,5.5,7c0,2.3-1.7,3.4-3.8,2.3
						C97.6,40.5,96.5,37.9,95.9,35.2z"/>
					<path class="st0" d="M51,39.6c-0.2,2.6-1.1,4.9-3.2,6.6c-0.8,0.6-1.7,0.9-2.5,0.4C44.2,46.2,44,45,44,44.1
						c-0.2-2.8,1.5-6.2,4-7.5c1.5-0.9,2.7-0.2,3,1.5V39.6L51,39.6z"/>
					<path class="st0" d="M86.6,35.6c0-1.1,0.2-1.9,0.8-2.8c1.1-1.1,2.1-1.3,3.2-0.2c1.9,1.7,3.2,3.6,3.4,6.2
						c0.2,1.3-0.6,2.1-1.7,2.8c-0.8,0.4-1.9,0.2-2.7-0.2C87.8,40.3,86.4,37.3,86.6,35.6L86.6,35.6z"/>
					<path class="st0" d="M7.2,85c0-1.1,0-2.1,0.4-3.2C7.8,81,8,80.4,8.7,79.9c1.1-0.6,1.7-0.6,2.1,0.6c1.7,3.2,1.9,6.6,1.1,10.2
						c0,0.2-0.2,0.6-0.4,0.9c-1.3,1.5-2.1,1.5-3,0C7.8,90.2,7,87,7.2,85z"/>
					<path class="st0" d="M105.2,34.5c0-1.9,1.3-2.8,3-1.9c2.5,1.3,4.4,3.2,5.5,6c0.4,1.1,0.2,2.1-0.6,3c-0.6,0.9-1.7,0.4-2.3,0
						C108.2,40.9,105.4,37.1,105.2,34.5L105.2,34.5z"/>
					<path class="st0" d="M123.4,142.8c0,1.1-0.4,1.9-0.8,2.8c-0.8,1.3-2.1,2.1-3.6,2.6c-2.5,0.9-4.2-0.9-3.8-3.6
						c0.4-2.3,3.6-4.9,5.9-4.5C122.8,140.5,123.4,141.3,123.4,142.8L123.4,142.8z"/>
					<path class="st0" d="M77.5,35.8c0-1.5,0.2-2.6,0.8-3.6c1.1-1.5,2.7-1.7,4-0.2c1.3,1.9,2.3,3.8,1.9,6.2C84,39.7,82.7,41,81.5,41
						s-2.7-1.1-3.2-2.3C77.9,37.7,77.3,36.9,77.5,35.8z"/>
					<path class="st0" d="M28.2,131.9c0-0.9,0.8-1.5,1.7-1.5c1.5,0.2,2.5,1.3,3.4,2.1c1.5,1.5,3,3.2,3.6,5.3
						c0.2,0.9,0.2,1.9-0.4,2.3c-0.6,0.4-1.5,0.2-2.1-0.2c-2.7-1.5-4.9-3.8-5.9-6.8C28.2,132.8,28.2,132.4,28.2,131.9L28.2,131.9z"/>
					<path class="st0" d="M74.9,34.3c-0.2,1.9-0.2,3.6-1.9,4.7c-1.7,1.3-3.4,0-4-1.5c-0.8-1.9-0.4-3.8,0.2-5.5
						c0.4-1.3,1.5-1.7,2.5-2.3c0.6-0.2,1.3,0.2,1.9,0.9C74.5,31.8,74.9,33,74.9,34.3z"/>
					<path class="st0" d="M141,130.2c-0.4,2.6-1.9,4.3-3.8,5.8c-1.5,0.9-3,0.4-3.2-1.5c-0.4-2.6,0.2-4.7,2.3-6.4
						c0.8-0.6,1.5-1.9,3-1.5c1.3,0.4,1.5,1.5,1.7,2.8V130.2L141,130.2z"/>
					<path class="st0" d="M43.8,35.6c-0.6,3-1.5,6.2-5.1,7.9c-1.3,0.6-2.5-0.4-2.5-1.9c0.4-3.2,1.7-6,4.7-7.7
						c0.6-0.4,1.5-0.6,2.1-0.4C43.8,33.9,43.8,34.7,43.8,35.6L43.8,35.6z"/>
					<path class="st0" d="M18.6,53.5c-0.2,2.6-0.8,5.3-2.5,7.9c-0.6,0.9-1.3,1.5-2.3,1.1c-0.8-0.2-1.1-1.3-1.1-2.1
						c0-3.4,0.8-6.4,3.2-8.9c0.2-0.2,0.4-0.2,0.6-0.4c1.1-0.6,1.3-0.4,1.9,0.6C18.6,52.2,18.4,52.6,18.6,53.5L18.6,53.5z"/>
					<path class="st0" d="M78.7,156.9c-2.3,0-5.1-1.9-5.5-4.1c-0.2-1.1,0.4-2.6,1.5-2.8c2.7-0.6,5.1,0,6.8,2.6
						C82.8,154.7,81.3,156.9,78.7,156.9z"/>
					<path class="st0" d="M27.9,41.6c-0.4,3.4-1.7,6.2-3.8,8.5c-0.4,0.4-1.1,0.6-1.7,0.9c-0.4,0.2-0.8,0-1.1-0.6
						c-0.6-1.1-0.4-2.3,0-3.4c0.8-2.6,1.9-4.9,4.2-6.6c0.6-0.4,1.3-0.6,1.7-0.4C27.7,40.3,27.9,41.2,27.9,41.6L27.9,41.6z"/>
					<path class="st0" d="M60.3,34.5c0.2-2.6,0.8-4.9,3.4-6.2c1.1-0.6,1.9-0.4,2.3,0.6c1.1,2.3,0.6,6.4-1.9,8.3
						c-1.7,1.3-3.4,0.4-3.8-1.7C60.3,35.6,60.3,34.5,60.3,34.5z"/>
					<path class="st0" d="M63.9,148.3c2.3,0.2,5.5,1.9,6.4,4.9c0.4,1.3-0.8,2.6-2.3,2.6c-2.3,0-5.5-2.3-6.4-4.5
						C61,149.8,62,148.4,63.9,148.3L63.9,148.3z"/>
					<path class="st0" d="M89.5,157.5c-1.5,0-2.5-0.4-3.6-1.5c-1.9-1.9-0.8-4.3,0.8-4.9c2.1-1.1,4.4-0.2,5.7,1.5
						c1.7,2.1,0.4,4.3-1.7,4.9H89.5L89.5,157.5z"/>
					<path class="st0" d="M10,112.1v-0.6c0.2-1.3,1.1-1.5,2.1-0.6c2.3,2.1,3.4,4.9,4.2,7.7c0.4,0.6,0.6,1.7,0.6,2.6
						c-0.2,1.3-0.8,1.5-1.9,0.9C12.7,120,10.2,115.1,10,112.1L10,112.1z"/>
					<path class="st0" d="M154.5,101.9c0-1.9,0.4-3.6,1.1-5.1c0.4-0.9,1.1-1.3,1.7-1.3s1.1,0.9,1.3,1.5c1.1,3,0.8,6-0.4,8.7
						c-0.2,0.4-0.4,0.6-0.8,1.1c-0.8,0.9-1.7,0.6-2.1-0.4C154.7,104.6,154.3,103.2,154.5,101.9L154.5,101.9z"/>
					<path class="st0" d="M51.9,146.4c1.3,0,2.7,0.6,3.8,1.7c1.3,1.1,2.5,2.1,3.2,3.8c0.4,1.3-0.6,2.6-1.9,2.3
						c-3.2-0.6-5.5-2.3-7-5.3C49.5,147.5,50.4,146.4,51.9,146.4L51.9,146.4z"/>
					<path class="st0" d="M9.3,102.5c0,0.6,0.2,1.3-0.2,2.1c-0.6,1.1-1.3,1.3-1.9,0.4c-0.4-0.6-0.8-1.3-1.1-1.7
						c-1.1-2.8-1.9-5.5-1.7-8.7c0-0.4,0.2-0.9,0.2-1.5c0-0.4,0.4-0.9,0.8-0.9s0.8,0.2,1.1,0.6c1.7,1.9,1.9,4.3,2.3,6.6
						C9.3,100.6,9.5,101.4,9.3,102.5L9.3,102.5z"/>
					<path class="st0" d="M100.8,150.7c2.7,0.2,4.2,1.7,4,3.4c-0.4,1.9-3,3.6-5.1,3.4c-0.4,0-0.6-0.2-1.1-0.2
						c-1.1-0.2-1.9-0.9-2.1-2.1c-0.2-1.1,0.2-2.1,1.1-3C98.6,151.5,99.9,150.9,100.8,150.7z"/>
					<path class="st0" d="M6.4,71c0-2.8,0.4-5.1,1.7-7.2c0-0.2,0.2-0.4,0.2-0.4c0.4-0.4,1.1-1.1,1.7-0.9c0.6,0.2,0.8,0.9,0.8,1.5
						c0.2,3.2,0.2,6.6-1.3,9.6l-0.2,0.2c-0.4,0.6-1,1.2-1.7,1.2s-0.8-0.9-1.1-1.3C6.1,72.5,6.6,71.6,6.4,71L6.4,71z"/>
					<path class="st0" d="M156.6,111.5c0.2,3-0.8,5.5-2.7,7.9c-0.4,0.4-0.8,0.9-1.5,0.6c-0.6-0.2-0.8-0.6-0.8-1.3
						c-0.6-3.4,0.4-6.2,2.3-8.7c0.6-0.6,1.1-0.9,1.9-0.6c0.8,0.2,0.8,0.9,0.8,1.5V111.5L156.6,111.5z"/>
					<path class="st0" d="M59.5,28.4c0,2.8-1.9,6-4.2,7c-0.8,0.4-1.7,0-2.1-0.9c-0.6-1.7,0.2-3.2,0.8-4.9c0.6-1.5,1.7-2.6,3.2-3.2
						C58.6,25.6,59.5,26.2,59.5,28.4L59.5,28.4z"/>
					<path class="st0" d="M125.7,144.9c0-2.6,3-6,5.7-6.2c1.1-0.2,1.9,0.6,1.9,1.7c-0.2,3.2-3.2,6-5.7,6.6
						C126.6,147.3,125.7,146.4,125.7,144.9z"/>
					<path class="st0" d="M38.3,31.5c-0.4,2.1-1.5,3.8-2.5,5.5c-0.6,1.1-1.7,1.9-2.5,2.6c-0.6,0.4-1.3,0.6-2.1,0.2
						c-0.6-0.4-0.6-1.1-0.4-1.7c0.8-3.6,2.7-6.4,6.1-7.9C37.7,30.1,38.3,30.5,38.3,31.5z"/>
					<path class="st0" d="M18.8,127.7c0.2-1.3,0.4-1.5,1.7-1.1c1.1,0.4,1.9,1.3,2.5,2.1c1.7,1.9,3.2,4.1,3.8,6.6
						c0.2,0.4,0.2,1.1-0.2,1.5c-0.4,0.4-1.1,0.2-1.5,0c-3.2-1.9-5.3-4.9-6.4-8.5L18.8,127.7L18.8,127.7z"/>
					<path class="st0" d="M47,152c-0.8,0-1.9-0.6-2.7-1.1c-1.9-1.3-3.4-2.8-4.4-4.7c-0.2-0.6-0.6-1.3,0-1.9c0.6-0.6,1.3-0.6,2.1-0.2
						c3,1.1,4.9,3,6.6,5.5C48.9,150.7,48.5,151.8,47,152L47,152z"/>
					<path class="st0" d="M112.6,150.3c1.3,0,2.1,0.2,2.3,1.1c0.4,0.6,0.2,1.5-0.2,2.3c-1.1,1.7-2.5,2.8-4.4,3.2
						c-1.1,0.2-2.1,0-2.7-0.9s-0.4-1.7,0-2.8C108.8,151.1,110.9,150.7,112.6,150.3L112.6,150.3z"/>
					<path class="st0" d="M46.4,31.5c0-1.3,0.6-2.3,1.3-3.4c1.1-1.7,2.5-3.4,4.7-4.1c0.8-0.2,1.3,0,1.3,0.9v1.3
						c-0.8,2.3-1.9,4.7-4.2,6.2c-0.4,0.2-0.8,0.4-1.5,0.6C46.8,33,46.4,32.8,46.4,31.5z"/>
					<path class="st0" d="M142.9,132.4c0.2-3,1.3-5.8,4-7.5c1.3-0.9,2.3-0.4,2.1,1.3c-0.2,3.4-1.7,6-4.2,8.1c-0.4,0.4-0.8,0.2-1.3,0
						c-0.4-0.2-0.6-0.6-0.4-1.3C142.9,132.8,142.9,132.6,142.9,132.4L142.9,132.4z"/>
					<path class="st0" d="M88.1,24.1c0-1.1,0-1.9,1.3-2.3c0.8-0.2,1.3,0.2,1.7,0.6c1.7,1.5,3.2,3.2,3.2,5.5c0,0.9,0,1.7-0.8,2.1
						s-1.7,0.2-2.5-0.2C89.1,28.4,88.3,26.4,88.1,24.1L88.1,24.1z"/>
					<path class="st0" d="M95.2,23.7c0-1.3,1.1-1.9,2.1-1.3c2.3,1.3,4.4,3.2,5.3,6c0.2,0.9,0,1.5-0.4,2.1c-0.6,0.6-1.3,0.4-1.9,0
						C97.8,29.4,95.4,26,95.2,23.7L95.2,23.7z"/>
					<path class="st0" d="M80.9,24.7c0.2-1.3,0.4-2.3,1.3-3.2c0.8-0.9,1.7-0.6,2.3,0c1.5,1.7,2.5,3.4,2.1,6
						c-0.2,1.1-0.8,1.7-1.7,2.1c-0.8,0.4-1.5-0.2-2.1-0.9C81.7,27.7,81.1,26.2,80.9,24.7z"/>
					<path class="st0" d="M5.5,82.1c0,1.7,0,3.2-0.8,4.7c-0.4,0.9-0.8,0.9-1.5,0c-0.6-1.1-0.8-2.1-0.8-3.4c-0.2-2.6,0-5.1,0.6-7.7
						c0-0.2,0.2-0.6,0.2-0.9c0.2-0.2,0.6-0.6,1.1-0.6s0.6,0.6,0.6,1.1c0.2,0.6,0.2,1.5,0.4,2.1C5.3,78.9,5.3,80.6,5.5,82.1L5.5,82.1
						z"/>
					<path class="st0" d="M16.7,45.4c0.6-3.6,2.5-6.6,5.3-8.9c0.4-0.2,0.8-0.6,1.5-0.4c0.6,0.4,0.4,1.1,0.2,1.5
						c-1.1,3.2-2.5,6.4-5.1,8.5c-0.4,0.2-0.8,0.4-1.3,0.2C16.5,46.3,16.7,45.8,16.7,45.4L16.7,45.4z"/>
					<path class="st0" d="M37.7,149c-0.4,0-1.1-0.2-1.5-0.4c-2.5-1.5-4.4-3.4-5.9-6c-0.4-0.6-0.8-1.3-0.2-1.9c0.6-0.6,1.3,0,1.9,0.2
						c1.9,1.1,3.6,2.6,5.1,4.3c0.6,0.9,1.3,1.7,1.7,2.8C38.8,148.8,38.5,149,37.7,149L37.7,149z"/>
					<path class="st0" d="M79.2,24.7c0,1.1-0.4,2.1-1.3,3.2C77,29,75.6,29,74.7,27.7c-1.3-1.9-0.8-5.3,0.8-6.8
						c1.1-1.1,1.9-0.9,2.7,0.4C78.7,22.2,79.2,23.9,79.2,24.7L79.2,24.7z"/>
					<path class="st0" d="M41.3,29c0-1.7,1.1-2.8,1.9-3.8c1.1-1.5,2.5-2.6,4.2-3.4c0.4-0.2,0.8-0.2,1.3-0.4c0.4,0,0.8,0.2,0.6,0.9
						c-1.3,3.4-3.2,6.2-6.6,7.7C41.7,30.5,41.3,30.1,41.3,29L41.3,29z"/>
					<path class="st0" d="M26.2,35.4c0.2-1.1,0.4-2.1,1.1-3c1.5-2.1,3-4.1,5.3-5.3l0.2-0.2c0.4,0,1.1-0.4,1.3,0c0.4,0.2,0,0.9,0,1.3
						c-1.3,3-3.2,5.5-5.7,7.7c-0.4,0.2-0.8,0.4-1.3,0.4C26.7,36.5,26.2,36.2,26.2,35.4L26.2,35.4z"/>
					<path class="st0" d="M8.9,56.1c0.6-3.6,1.7-6.8,4.4-9.6c0.2-0.2,0.6-0.6,1.1-0.4c0.4,0.2,0.4,0.6,0.2,0.9
						c0,1.9-0.8,3.8-1.5,5.5C12.5,54,12,55.3,11,56.6c-0.4,0.4-0.8,1.1-1.5,0.9C8.7,57.3,8.9,56.7,8.9,56.1L8.9,56.1z"/>
					<path class="st0" d="M67.5,24.7c0.2-2.1,1.1-4.1,2.7-5.3c1.1-0.9,2.1-0.4,2.1,1.1c0.2,1.9,0.2,3.6-0.8,5.1
						c-0.4,0.6-1.1,1.3-1.9,1.5c-0.8,0.4-1.5,0.2-1.9-0.6C67.7,25.8,67.7,25.4,67.5,24.7L67.5,24.7z"/>
					<path class="st0" d="M117,154.3c0.6-1.1,0.8-2.6,2.1-3.4c0.8-0.6,1.9-1.3,3-1.5c0.6-0.2,1.5-0.2,2.1,0.4
						c0.6,0.9,0.2,1.7-0.2,2.3c-1.3,1.7-3,3.2-5.1,3.8C117.9,156.2,117.3,155.8,117,154.3L117,154.3z"/>
					<path class="st0" d="M75.1,160.9c-1.1,0.2-2.3-0.2-3.6-0.9c-0.6-0.4-1.3-0.9-1.1-1.7c0.2-0.9,0.8-1.3,1.7-1.3
						c1.3-0.2,2.7,0,3.8,0.9c0.8,0.4,1.3,1.3,1.1,2.1C76.8,160.7,76,160.7,75.1,160.9z"/>
					<path class="st0" d="M141.2,138.1c0,1.7-0.6,2.8-1.5,3.8c-1.1,1.3-2.1,2.6-3.8,3.2c-0.4,0.2-0.6,0.4-1.1,0.2
						c-0.4-0.2-0.4-0.6-0.2-1.1c0.4-3.2,2.3-5.1,4.9-6.8C140.3,136.6,141.2,137,141.2,138.1L141.2,138.1z"/>
					<path class="st0" d="M18.4,131.7c0,0.4-0.2,0.6-0.4,0.9c-0.4,0.2-0.6,0-0.8-0.2c-1.7-1.5-3-3.4-4-5.3c-0.6-1.3-1.3-2.6-1.7-3.8
						c-0.2-0.4-0.2-1.1,0.4-1.5c0.4-0.2,0.6,0.2,0.8,0.6c2.3,2.6,4.4,5.5,5.5,8.7C18.4,131.3,18.4,131.5,18.4,131.7z"/>
					<path class="st0" d="M66.7,161.3c-2.1,0-5.5-2.1-6.4-4.1c-0.4-0.9,0-1.5,0.8-1.7c2.3-0.4,6.1,1.9,6.8,4.1
						C68.4,160.7,67.7,161.3,66.7,161.3z"/>
					<path class="st0" d="M83.8,157.9c1.9,0,3.4,0.6,4,1.7c0.4,0.6,0,1.1-0.8,1.3c-2.1,0.9-4.9,0.2-5.7-0.9
						c-0.8-0.9-0.4-1.5,0.8-1.9C82.6,158,83.2,158,83.8,157.9L83.8,157.9z"/>
					<path class="st0" d="M67.5,19.2c-0.4,1.9-1.3,4.3-3.4,5.8c-0.6,0.4-1.3,0.9-1.9,0.2c-0.6-0.6-0.8-1.5-0.4-2.1
						c0.8-2.1,2.1-4.3,4.2-5.3C67.1,17,67.7,17.5,67.5,19.2L67.5,19.2z"/>
					<path class="st0" d="M38.3,27.1c-0.8,0-1.3,0-0.8-0.9c0.2-0.9,0.6-1.5,1.3-2.1c1.7-1.9,3.8-3.8,6.4-4.7c0.4-0.2,0.8-0.6,1.1,0
						c0.2,0.4,0.2,0.9-0.2,1.3c-1.7,2.8-4.2,4.9-7,6.6C38.8,26.9,38.3,26.9,38.3,27.1L38.3,27.1z"/>
					<path class="st0" d="M4,106.8c0-0.6,0-0.9,0.2-1.3c0.2-0.6,0.6-0.6,1.1-0.2c0.6,0.9,1.1,1.5,1.5,2.3c1.1,2.6,2.1,5.1,2.5,7.9
						c0,0.6,0,1.1-0.4,1.5c-0.6,0.4-0.8-0.4-1.1-0.6C5.7,113.4,4.6,110,4,106.8L4,106.8z"/>
					<path class="st0" d="M93.6,161.3c-2.1-0.2-3.2-1.1-2.3-2.1c0.8-1.3,4.9-1.7,6.4-0.6c0.6,0.4,0.6,1.3,0,1.7
						C96.5,161.1,95.2,161.3,93.6,161.3z"/>
					<path class="st0" d="M52.1,154.3c1.5,0.2,2.7,0.9,3.8,1.5c1.3,0.9,2.7,1.7,3.4,3.2c0.2,0.4,0.4,0.6,0.2,1.1
						c-0.2,0.4-0.6,0.4-1.1,0.4c-3-0.6-5.3-2.1-7-4.5c-0.2-0.4-0.4-0.9-0.2-1.3C51.4,154.5,51.9,154.3,52.1,154.3L52.1,154.3z"/>
					<path class="st0" d="M57.2,23.4c-0.4,0-0.8-0.4-0.6-1.1c0-0.9,0.4-1.5,0.8-1.9c1.3-1.9,3-3.6,5.3-4.3c0.8-0.2,1.1,0.2,0.8,0.9
						c-1.1,2.8-2.7,5.1-5.5,6.6c-0.2,0-0.2,0.2-0.4,0.2C57.6,23.6,57.4,23.4,57.2,23.4L57.2,23.4z"/>
					<path class="st0" d="M29.9,145.1c0,1.1-0.6,0.6-1.1,0.4c-1.1-0.4-1.9-1.5-2.7-2.3c-1.5-1.5-3-3.2-4-4.9
						c-0.2-0.2-0.4-0.6-0.4-0.9c-0.2-0.2,0-0.4,0.2-0.6c0.2-0.2,0.4-0.2,0.6,0c0.4,0.2,1.1,0.4,1.5,0.9c2.1,1.9,4.2,4.1,5.7,6.4
						C29.6,144.3,29.8,144.7,29.9,145.1L29.9,145.1z"/>
					<path class="st0" d="M3.2,67.4c0.2-3,0.6-6,2.1-8.7c0.2-0.2,0.2-0.4,0.4-0.6c0.4-0.4,0.6-0.9,1.1-0.9c0.4,0.1,0.2,0.6,0.2,1
						c0,3.6-0.8,6.8-2.3,10c-0.2,0.4-0.4,1.3-1.1,1.1C3,69.1,3.4,68.4,3.2,68V67.4L3.2,67.4z"/>
					<path class="st0" d="M102.7,162.6c-0.6,0.2-1.5-0.2-1.7-0.9c-0.2-0.9,0-1.5,0.6-1.9c1.3-1.3,2.7-1.9,4.7-1.9
						c0.8,0,1.3,0.4,1.7,1.1s-0.2,1.1-0.4,1.5C106.5,161.6,104.6,162.6,102.7,162.6L102.7,162.6z"/>
					<path class="st0" d="M154.9,123.4c-0.4,2.1-1.3,4.3-2.5,6c-0.6,0.9-1.3,1.9-2.1,2.6c-0.2,0.2-0.4,0.4-0.8,0.2
						c-0.4-0.2-0.2-0.4-0.2-0.6c0.6-3.2,1.7-6.2,4-8.7c0.2-0.2,0.6-0.6,1.1-0.4C154.9,122.3,154.9,123,154.9,123.4L154.9,123.4z"/>
					<path class="st0" d="M42.5,152c0.6,0,1.1,0.2,1.5,0.4c2.3,1.3,4.4,2.8,6.1,4.9c0.2,0.2,0.6,0.6,0.4,1.1
						c-0.2,0.4-0.8,0.4-1.3,0.2c-3-1.1-5.5-2.8-7.2-5.3c-0.2-0.2-0.4-0.6-0.2-1.1C41.9,151.8,42.3,152,42.5,152L42.5,152z"/>
					<path class="st0" d="M32.6,23.9c-0.2,0.6-0.6,1.1-0.8,1.7c-1.9,2.3-3.8,4.7-6.4,6.4c-0.4,0.2-0.8,0.4-1.3,0.2
						c-0.4-0.2-0.2-0.9,0-1.1c1.7-3.2,4.4-5.8,7.6-7.5C32.2,23.5,32.6,23,32.6,23.9z"/>
					<path class="st0" d="M52.7,21.3c-0.6,0-0.6-0.6-0.4-1.1c0.4-1.1,1.1-1.9,1.9-2.6c1.5-1.5,3.2-2.8,5.1-3.4
						c0.4-0.2,0.8-0.4,1.1-0.2c0.4,0.4,0,0.9-0.2,1.1c-1.3,1.5-2.5,3-4,4.3C55.3,20.3,54.2,21.1,52.7,21.3L52.7,21.3z"/>
					<path class="st0" d="M1.1,86.5c1.1,1.5,1.3,3,1.5,4.5c0.2,1.9,0.4,3.6,0.6,5.5c0.2,0.9,0,1.7,0,2.3c0,0.4-0.2,0.6-0.4,0.6
						c-0.4,0-0.6-0.4-0.6-0.6c-0.4-1.5-0.6-3.2-1.1-4.7c-0.2-1.3-0.2-2.6-0.4-4.1C0.2,89.3,0.4,88,1.1,86.5L1.1,86.5z"/>
					<path class="st0" d="M14.6,41.1v-0.4c1.7-3.2,3.4-6.2,6.1-8.5c0.4-0.2,0.8-0.6,1.1-0.4c0.4,0.2,0,0.9,0,1.1
						c-1.5,3-3.4,6-5.7,8.5c-0.2,0.2-0.6,0.6-1.1,0.4C14.6,41.8,14.6,41.3,14.6,41.1z"/>
					<path class="st0" d="M132.1,148.6c-0.4,1.1-0.8,2.1-1.9,3c-1.3,1.3-2.5,2.1-4.2,3c-0.2,0.2-0.6,0.2-1.1,0c-0.2-0.2,0-0.6,0-0.9
						c1.1-2.8,3-4.7,5.7-5.8C131.2,147.7,132.3,147.3,132.1,148.6L132.1,148.6z"/>
					<path class="st0" d="M93.1,18.3c0,1.7-0.6,2.1-1.7,1.7c-2.3-0.9-3.6-3.8-3.6-5.8c0-1.3,0.4-1.5,1.5-0.9
						C91.2,14.7,92.5,16.6,93.1,18.3L93.1,18.3z"/>
					<path class="st0" d="M44.9,16.2c-0.6,1.3-1.5,1.9-2.3,2.6c-1.9,1.7-3.8,3.4-6.1,4.5c-0.4,0.2-0.8,0.6-1.3,0.2
						c-0.4-0.6,0.2-1.1,0.4-1.5c1.7-1.9,3.6-3.6,5.9-4.7C42.5,16.8,43.4,16.2,44.9,16.2L44.9,16.2z"/>
					<path class="st0" d="M87.2,18.1c0,0.6,0,1.3-0.8,1.5c-0.6,0.4-1.3,0-1.7-0.4c-1.3-1.1-2.1-4.5-1.3-6c0.4-0.9,1.3-0.9,1.9,0
						C86.4,14.7,87,16.2,87.2,18.1z"/>
					<path class="st0" d="M109.4,162.6c-0.4-0.2-0.8,0.2-0.8-0.4c-0.2-0.6,0-1.1,0.4-1.5c1.1-1.3,2.3-2.3,3.8-2.8
						c0.2,0,0.6-0.2,0.8-0.2c0.6-0.2,1.5-0.4,1.7,0.4c0.4,0.6-0.2,1.3-0.6,1.7C113.3,161.4,111.6,162.4,109.4,162.6L109.4,162.6z"/>
					<path class="st0" d="M0.4,81.8c-0.8-5.1-0.6-10.2,0.8-15.3c0,1.7-0.6,3.2-0.6,4.9C1,70.5,1,69.7,1.9,69.1
						C1.9,73.3,1.9,77.6,0.4,81.8L0.4,81.8z"/>
					<path class="st0" d="M35.6,17.3c1.5-1.7,3.2-2.6,5.1-3.8c-0.8,0-1.3,0.6-2.1,0.6c0.8-0.9,1.7-1.3,2.5-1.7
						c2.1-1.1,3.8-3,5.9-3.8c1.1-0.4,2.1-1.1,3.4-1.5c0,0,0,0.2,0.2,0.2c-0.8,0.4-1.9,0.9-3,1.5C47.8,9,48,9,48.2,9
						c-1.9,1.1-4,1.9-5.7,3.2c1.1-0.2,2.1-0.9,3.4-1.1C42.5,13.4,39.4,15.8,35.6,17.3L35.6,17.3z"/>
					<path class="st0" d="M147.3,135.8c-0.2,1.1-0.8,1.9-1.5,2.8c-1.3,1.7-2.3,3.6-4.2,4.7c-0.2,0.2-0.4,0.4-0.6,0.2
						c-0.4-0.2,0-0.4,0-0.6c0.8-2.8,2.5-5.1,4.7-7c0.2-0.2,0.4-0.2,0.6-0.4C147.1,134.7,147.3,135.1,147.3,135.8z"/>
					<path class="st0" d="M58.6,12.4c-1.9,2.1-4,3.8-6.4,5.3c-0.6,0.4-1.5,0.9-2.1,1.1c-0.4,0-0.6,0.4-1.1,0c-0.2-0.4,0-0.9,0.2-1.1
						c0.6-0.9,1.7-1.5,2.5-2.1c1.7-1.3,3.4-2.3,5.3-3C57.6,12.4,58,12.2,58.6,12.4L58.6,12.4z"/>
					<path class="st0" d="M42.8,155.8c-0.6,0.2-1.1,0.2-1.3,0c-2.7-1.3-5.3-3.2-7.2-5.3c-0.4-0.4-1.1-0.9-0.6-1.5
						c0.4-0.4,1.1,0,1.5,0.2C37.9,150.9,40.4,153.2,42.8,155.8L42.8,155.8z"/>
					<path class="st0" d="M78.7,15.6c0-1.1,0.2-2.1,0.8-3c0.6-0.9,1.5-0.9,1.7,0.2c0.6,1.7,0.8,3.6,0.2,5.3
						c-0.2,0.6-0.6,1.1-1.5,1.1c-0.8-0.2-1.1-0.9-1.3-1.5C78.5,16.8,78.5,16.2,78.7,15.6z"/>
					<path class="st0" d="M52.9,8.5c-1.1,0.2-2.1,0.4-3.2,0.9c1.5-1.3,3.2-1.5,4.9-2.3c-0.6-0.4-1.1,0.4-1.7,0
						c1.3-0.4,2.7-0.6,3.6-1.5C57.1,5,58,4.7,58.6,4.5c1.1-0.4,1.9-0.6,3-0.6c0.6,0,1.3-0.6,2.1-0.4c0.2,0,0.4-0.6,1.1-0.4
						c0.2,0.4,0.8,0,1.1,0.4c-1.3,0.2-2.7,0.6-4.4,1.1c0.6,0,0.8,0.2,1.5,0.2c-1.5,0.4-2.7,0.9-4,1.3c0.6,0.4,1.3-0.2,1.9,0
						c-2.5,0.9-4.9,1.5-7,2.6C53.4,8.7,53.1,8.5,52.9,8.5L52.9,8.5z"/>
					<path class="st0" d="M73.9,16c0.4-1.7,1.1-3.4,2.7-4.7c0.6-0.4,0.8-0.2,0.8,0.4c0,1.9-0.2,3.6-1.3,5.3
						c-0.4,0.6-1.1,1.1-1.7,0.9C74.1,17.7,73.9,17.1,73.9,16L73.9,16z"/>
					<path class="st0" d="M7.4,51.8c0-0.6,0.4-1.5,0.6-2.1c1.1-2.6,2.3-5.3,4.2-7.5c0.2-0.2,0.4-0.6,0.8-0.4c0.4,0.2,0,0.6,0,0.9
						c-1.3,3.4-2.7,6.6-4.9,9.6C8,52.4,8,52.9,7.6,52.7C7.4,52.4,7.4,52.2,7.4,51.8z"/>
					<path class="st0" d="M80.4,3.8v0.6c0.4-0.2,0-0.6,0.6-0.6c-0.2,0.4,0.4,0.9,0,1.3c-1.3,1.3-2.1,2.8-3.4,4.1
						c-0.4,0.2-0.6,0.4-1.1,0.2C77,7.9,78.3,7,79.2,6c-1.5,0.9-2.5,2.3-4.2,2.6c0.6-1.3,1.9-1.5,2.7-2.6c-1.5,0.4-2.3,1.3-3.8,1.7
						c0.8-1.1,1.9-1.3,3.2-1.9c-1.5,0.2-2.3,1.1-3.4,0.9c0.4-0.6,1.1-0.4,1.5-0.9h-1.1c0.4-0.4,1.3-0.2,1.7-0.6
						c0.4-0.4,0.8-0.2,1.3-0.4c0.4-0.4,0.8,0.6,1.3,0V4.3c0.6-0.2,1.3,0,1.7-0.4L80.4,3.8L80.4,3.8z"/>
					<path class="st0" d="M57.6,10.4c-0.6,1.1-1.7,1.7-2.7,2.3c-2.1,1.3-4,2.6-6.4,3.4c-0.4,0.2-0.8,0.4-1.1,0
						c-0.2-0.4,0.2-0.6,0.6-0.9C50.6,12.8,54,11.3,57.6,10.4L57.6,10.4z"/>
					<path class="st0" d="M74.9,10.9v0.6c-1.3,1.7-1.7,3.8-3.8,4.9c-0.4,0.2-0.8,0.4-1.1,0c-0.4-0.2-0.4-0.9-0.2-1.3
						c1.1-2.1,2.3-3.8,4.4-4.9C75.1,9.8,74.7,10.7,74.9,10.9L74.9,10.9z"/>
					<path class="st0" d="M34.7,20.5c2.5-3.4,6.1-5.3,9.9-6.6C41.7,16.4,38.3,18.8,34.7,20.5z"/>
					<path class="st0" d="M64.8,163.9c-1.5-0.2-3-0.9-4.2-1.9c-0.2-0.2-0.4-0.4-0.2-0.6c0.2-0.2,0.4-0.4,0.8-0.2
						c1.9,0.2,3.4,1.1,4.7,2.1c0.1,0.1,0.2,0.3,0.2,0.4C65.8,163.9,65.6,163.9,64.8,163.9L64.8,163.9z"/>
					<path class="st0" d="M22.6,141.7c-3.4-2.6-5.7-6-7.8-9.6c0.1-0.1,0.3-0.3,0.4-0.4C18,134.9,21,137.9,22.6,141.7L22.6,141.7z"/>
					<path class="st0" d="M65.6,6.2C63.9,6.2,62.4,7,61,7c1.4-1,3.3-1.2,5-1.9c-1.3,0.2-2.3,0.4-3.6,0.4c1.7-0.6,3.4-1.1,5.1-1.3
						c-1.1-0.4-2.1,0.2-3.2,0c1.3-0.6,2.7-0.4,4-0.9c0,0,0.2-0.2,0.4-0.2c0.4,0,1.1-0.2,1.5,0c0.2,0,0.2,0.2,0,0.4
						c0.6,0.4,1.5,0,2.5,0.4h-1.9c0.6,0.4,1.1,0.2,1.5,0.4c-1.5,0.4-3.2,0.4-4.4,1.1C67.1,6.4,66.5,6.6,65.6,6.2L65.6,6.2z"/>
					<path class="st0" d="M73,9c0,0.9-0.4,1.3-0.8,1.7c-1.5,1.5-2.5,3-4.2,4.3c-0.2,0.2-0.6,0.4-0.8,0.4c-0.6,0.2-0.8-0.2-0.6-0.9
						c0-0.2,0-0.4,0.2-0.6C68.2,11.7,70.3,10,73,9z"/>
					<path class="st0" d="M12.1,127.9c-2.7-3.2-4.7-6.8-5.5-11.1C8.9,120.2,11,123.8,12.1,127.9z"/>
					<path class="st0" d="M54.8,160.7c0.8,0.2,1.9,0.6,3,1.3c1.3,0.6,2.5,1.5,3.6,2.3c0.2,0.2,0.4,0.4,0.2,0.6
						c-0.2,0.2-0.4,0.2-0.6,0.2c-2.5-0.9-4.9-1.7-6.8-3.4c-0.2-0.2-0.4-0.4-0.4-0.9C53.8,160.7,54,160.7,54.8,160.7z"/>
					<path class="st0" d="M115.1,161.6c1.3-2.6,5.3-5.3,7.2-4.9C121.9,158.6,117.5,161.1,115.1,161.6z"/>
					<path class="st0" d="M35.3,153c-3.6-1.7-6.6-4.5-8.9-7.7C29.8,147.3,32.6,150,35.3,153z"/>
					<path class="st0" d="M130.8,153c1.7-2.8,3.6-5.1,6.4-6.6c0.2-0.2,0.6-0.6,0.8-0.2c0.2,0.2,0,0.6-0.2,1.1
						C136.1,149.8,133.6,151.5,130.8,153L130.8,153z"/>
					<path class="st0" d="M71.5,8.1c-1.7,1.5-3.4,3-5.3,4.3c-0.6,0.4-1.3,0.9-2.1,1.1c-0.2,0-0.6,0.2-0.8,0s0-0.6,0.2-0.9
						c1.5-1.7,3.4-2.8,5.3-3.6C69.9,8.7,70.5,8.1,71.5,8.1L71.5,8.1z"/>
					<path class="st0" d="M57.8,8.7c-3.6,1.7-7,4.1-11,5.1C47.8,11.9,54.4,8.9,57.8,8.7z"/>
					<path class="st0" d="M22.9,27.9c-2.5,3.6-4.9,6.8-7.8,9.6C15.2,35.4,20.5,29,22.9,27.9z"/>
					<path class="st0" d="M54.8,163.5c-3.2-0.9-6.4-2.3-8.7-4.7C49.5,159.2,52.3,161.1,54.8,163.5z"/>
					<path class="st0" d="M61.4,11.9c1.3-1.9,6.6-4.5,9.3-4.7C67.7,9,64.8,11.1,61.4,11.9z"/>
					<path class="st0" d="M6.4,52.2C5.5,56.3,4.2,60.1,2.5,64C3.4,59.9,4,55.8,6.4,52.2z"/>
					<path class="st0" d="M25.4,24.7c0.6-1.7,1.9-2.1,2.7-3.2c0.6-0.6,1.1-1.5,1.9-1.9c1.1-0.4,1.7-1.7,2.7-2.3
						c0.6-0.2,1.1,0,1.7-0.2C31.8,20,28.6,22.2,25.4,24.7L25.4,24.7z"/>
					<path class="st0" d="M100.3,166.9c0.4-1.1,1.5-1.5,2.3-2.1c1.1-0.4,1.9-0.9,3.2-1.1c0.2,0,0.6-0.2,0.8,0.2s0,0.6-0.2,0.9
						c-1.1,1.1-2.5,1.5-3.8,1.9C101.8,166.9,101.2,167.1,100.3,166.9L100.3,166.9z"/>
					<path class="st0" d="M52.9,8.5c0.2,0,0.4-0.2,0.6-0.2c1.5-0.2,2.7-0.9,4-1.1c0.4,0,0.8-0.2,1.3,0c-3.8,1.7-7.4,3-11.2,4.3
						c0.9-1,2.4-1.5,3.4-2.1C51.9,9,52.5,9,52.9,8.5z"/>
					<path class="st0" d="M1.1,100c1.5,4.1,2.5,7.9,3.2,12.1C2.8,108.1,1.3,104.2,1.1,100z"/>
					<path class="st0" d="M60.1,10.2c3.2-2.1,6.8-3.4,10.4-4.1C67.1,7.7,63.9,9.6,60.1,10.2z"/>
					<path class="st0" d="M70.3,3.8V3.6c-0.6-0.2-1.1-0.2-1.7,0h-1.9c1.7-0.9,3.4-0.4,5.1-0.6h-1.9c2.5-0.9,5.1-0.2,7.6,0
						C75.1,3.4,72.8,3.9,70.3,3.8L70.3,3.8z"/>
					<path class="st0" d="M65.6,6.2c0.8,0,1.5-0.2,2.1-0.4c1.3,0,2.3-0.6,3.6-0.4C67.5,6.3,64.1,8,60.1,8.6
						C61.8,7.2,63.7,7,65.6,6.2L65.6,6.2z"/>
					<path class="st0" d="M83.6,7c0-0.2-0.2-0.6,0-0.9C84,6,84,6.6,84.2,6.8c0.8,1.1,1.5,2.1,1.9,3.2c0.2,0.4,0.4,1.1-0.2,1.3
						c-0.4,0.4-0.8,0-1.3-0.6C84,9.6,83.4,8.5,83.6,7z"/>
					<path class="st0" d="M82.3,5.3c0.6,1.9,1.3,3.4,0.6,5.1c-0.2,0.2-0.4,0.4-0.6,0.4c-0.4,0-0.8-0.4-0.8-0.9
						C81.3,8.5,81.5,7,82.3,5.3z"/>
					<path class="st0" d="M48.1,161.1c-3.4-1.1-6.4-2.8-8.9-5.3C42.5,157.1,45.3,159.2,48.1,161.1z"/>
					<path class="st0" d="M127.8,154.7c-0.6,1.7-1.9,2.3-3.2,3c-1.5,0.9-3,1.7-4.4,2.6C122.6,158.1,124.9,156.4,127.8,154.7
						L127.8,154.7z"/>
					<path class="st0" d="M81.7,5.1c-0.4,1.5-0.6,2.6-0.8,3.8c0,0.4-0.2,0.6-0.4,0.9c-0.2,0.2-0.6,0.6-1.1,0.4
						c-0.6-0.2-0.2-0.6-0.2-1.1C79.4,7.5,80.2,6.2,81.7,5.1z"/>
					<path class="st0" d="M145.8,140c1.5-2.6,3.2-5.1,5.3-7.2C151.6,133.6,148.4,137.7,145.8,140z"/>
					<path class="st0" d="M107.3,165.4c-0.4,0.2-0.4,0-0.6,0c0-0.1,0.1-0.3,0.2-0.4c1.7-0.9,3.2-1.7,5.1-2.1c0.2,0,0.2-0.2,0.4,0
						c0,0.1-0.1,0.3-0.2,0.4C110.5,164.5,108.8,165.2,107.3,165.4z"/>
					<path class="st0" d="M78.3,4.5v0.2c-0.4,0.4-0.8-0.4-1.3,0c-0.4,0.2-0.8,0.2-1.5,0.2h-1.3c0.6-0.4,1.1-0.9,1.9-0.6
						c0.2,0,0.8-0.6,1.5-0.6H80c0.4,0,0.2,0.2,0.2,0.4H80C79.6,4.5,79,3.8,78.3,4.5L78.3,4.5z"/>
					<path class="st0" d="M13.3,38.8c0,0.2-0.2,0.4-0.2,0.4c-1.3,2.1-2.7,4.5-4,6.6C10.2,43.3,11.4,40.7,13.3,38.8L13.3,38.8z"/>
					<path class="st0" d="M137.4,148.6c1.3-1.3,2.5-2.3,3.8-3.6C140.1,146.4,138.9,147.5,137.4,148.6z"/>
					<path class="st0" d="M22.2,27.5c-0.8,0.6-1.7,1.5-2.3,2.1c0.8-0.9,1.5-1.5,2.3-2.3C21.8,27.3,22,27.5,22.2,27.5z"/>
					<path class="st0" d="M5.5,82.1c-0.4-1.5-0.4-3.2,0-4.7V82.1z"/>
					<path class="st0" d="M64.6,2.8c1.1-0.6,2.3-0.2,3.6-0.2C66.9,2.6,65.8,2.8,64.6,2.8z"/>
				</g>
			</g>
		</g>
	</g>
</g>
</svg>
